<svg width="20" height="20" viewBox="0 0 20 20" fill="none" xmlns="http://www.w3.org/2000/svg">
<g clip-path="url(#clip0_163_7423)">
<path d="M18.3332 9.23843V10.0051C18.3321 11.8021 17.7503 13.5507 16.6743 14.99C15.5983 16.4292 14.0859 17.4822 12.3626 17.9917C10.6394 18.5012 8.79755 18.44 7.1119 17.8172C5.42624 17.1945 3.98705 16.0435 3.00897 14.536C2.03089 13.0285 1.56633 11.2451 1.68457 9.45202C1.80281 7.6589 2.49751 5.95203 3.66507 4.58599C4.83263 3.21994 6.41049 2.26791 8.16333 1.87188C9.91617 1.47585 11.7501 1.65704 13.3915 2.38843M18.3332 3.33366L9.99984 11.6753L7.49984 9.17533" stroke="white" stroke-width="1.66667" stroke-linecap="round" stroke-linejoin="round"/>
</g>
<defs>
<clipPath id="clip0_163_7423">
<rect width="20" height="20" fill="white"/>
</clipPath>
</defs>
</svg>
