<svg width="17" height="16" viewBox="0 0 17 16" fill="none" xmlns="http://www.w3.org/2000/svg">
<path d="M15.1666 6.66683H1.83325M7.83325 9.3335H4.49992M1.83325 5.46683L1.83325 10.5335C1.83325 11.2802 1.83325 11.6536 1.97858 11.9388C2.10641 12.1897 2.31038 12.3937 2.56126 12.5215C2.84648 12.6668 3.21985 12.6668 3.96659 12.6668L13.0333 12.6668C13.78 12.6668 14.1534 12.6668 14.4386 12.5215C14.6895 12.3937 14.8934 12.1897 15.0213 11.9388C15.1666 11.6536 15.1666 11.2802 15.1666 10.5335V5.46683C15.1666 4.72009 15.1666 4.34673 15.0213 4.06151C14.8934 3.81063 14.6895 3.60665 14.4386 3.47882C14.1534 3.3335 13.78 3.3335 13.0333 3.3335L3.96659 3.3335C3.21985 3.3335 2.84648 3.3335 2.56126 3.47882C2.31038 3.60665 2.10641 3.81063 1.97858 4.06151C1.83325 4.34672 1.83325 4.72009 1.83325 5.46683Z" stroke="white" stroke-linecap="round" stroke-linejoin="round"/>
</svg>
