<svg width="20" height="20" viewBox="0 0 20 20" fill="none" xmlns="http://www.w3.org/2000/svg">
<path d="M16.6666 10.417V5.66699C16.6666 4.26686 16.6666 3.5668 16.3941 3.03202C16.1544 2.56161 15.772 2.17916 15.3016 1.93948C14.7668 1.66699 14.0667 1.66699 12.6666 1.66699H7.33325C5.93312 1.66699 5.23306 1.66699 4.69828 1.93948C4.22787 2.17916 3.84542 2.56161 3.60574 3.03202C3.33325 3.5668 3.33325 4.26686 3.33325 5.66699V14.3337C3.33325 15.7338 3.33325 16.4339 3.60574 16.9686C3.84542 17.439 4.22787 17.8215 4.69828 18.0612C5.23306 18.3337 5.93308 18.3337 7.33313 18.3337H10.4166M11.6666 9.16699H6.66659M8.33325 12.5003H6.66659M13.3333 5.83366H6.66659M12.4999 15.8337L14.9999 18.3337M14.9999 18.3337L17.4999 15.8337M14.9999 18.3337V13.3337" stroke="white" stroke-width="1.66667" stroke-linecap="round" stroke-linejoin="round"/>
</svg>
