<svg width="20" height="20" viewBox="0 0 20 20" fill="none" xmlns="http://www.w3.org/2000/svg">
<path d="M10 18.3327C9.31818 18.3327 8.66682 18.0583 7.36411 17.5096C4.12137 16.1438 2.5 15.4609 2.5 14.3122L2.5 6.28463M10 18.3327C10.6818 18.3327 11.3332 18.0583 12.6359 17.5096C15.8786 16.1438 17.5 15.4609 17.5 14.3122V6.28463M10 18.3327L10 10.0237M17.5 6.28463C17.5 6.795 16.832 7.11728 15.4961 7.76185L13.0617 8.93635C11.5593 9.66124 10.8081 10.0237 10 10.0237M17.5 6.28463C17.5 5.77427 16.832 5.45199 15.4961 4.80742L14.2038 4.18394M2.5 6.28463C2.5 6.795 3.16798 7.11728 4.50393 7.76185L6.93827 8.93635C8.44069 9.66124 9.19191 10.0237 10 10.0237M2.5 6.28463C2.5 5.77427 3.16798 5.45199 4.50393 4.80742L5.83333 4.16602M5 10.8546L6.66667 11.6855" stroke="white" stroke-linecap="round" stroke-linejoin="round"/>
<path d="M9.50016 7.49935C9.50016 7.77549 9.72402 7.99935 10.0002 7.99935C10.2763 7.99935 10.5002 7.77549 10.5002 7.49935H9.50016ZM9.16683 2.35637L8.78653 2.03176L8.78653 2.03176L9.16683 2.35637ZM7.95319 3.00807C7.77392 3.21811 7.79885 3.53371 8.00889 3.71298C8.21892 3.89226 8.53452 3.86733 8.7138 3.65729L7.95319 3.00807ZM11.2865 3.65729C11.4658 3.86733 11.7814 3.89226 11.9914 3.71298C12.2015 3.53371 12.2264 3.21811 12.0471 3.00807L11.2865 3.65729ZM10.8335 2.35637L11.2138 2.03176L11.2138 2.03176L10.8335 2.35637ZM9.50016 1.66602L9.50016 7.49935H10.5002L10.5002 1.66602L9.50016 1.66602ZM8.78653 2.03176L7.95319 3.00807L8.7138 3.65729L9.54713 2.68098L8.78653 2.03176ZM12.0471 3.00807L11.2138 2.03176L10.4532 2.68098L11.2865 3.65729L12.0471 3.00807ZM9.54713 2.68098C9.75311 2.43966 9.87502 2.29852 9.9725 2.21138C10.0629 2.13062 10.0575 2.16602 10.0002 2.16602V1.16602C9.69875 1.16602 9.47314 1.31647 9.30606 1.46582C9.1461 1.60881 8.97338 1.81285 8.78653 2.03176L9.54713 2.68098ZM11.2138 2.03176C11.0269 1.81285 10.8542 1.60881 10.6943 1.46583C10.5272 1.31647 10.3016 1.16602 10.0002 1.16602V2.16602C9.94283 2.16602 9.93747 2.13062 10.0278 2.21138C10.1253 2.29852 10.2472 2.43966 10.4532 2.68098L11.2138 2.03176Z" fill="white"/>
</svg>
